<svg width="135" height="60" fill="none" xmlns="http://www.w3.org/2000/svg"><path fill-rule="evenodd" clip-rule="evenodd" d="M101.527 23.06c-.442-2.803-2.047-4.226-5.101-4.226h-8.799c-3.05 0-4.656 1.423-5.1 4.226-.04.326-.08.69-.08 1.015V40.78h5.504V25.996c0-1.14.396-1.595 1.468-1.595h5.224c.963 0 1.462.454 1.462 1.595v14.783h5.503V24.075c0-.325-.042-.689-.081-1.015zM74.536 40.778h5.502V18.834h-5.502v21.944zM64.446 10.9h-5.504v29.895h5.503V24.418h5.272V18.85h-5.272V10.9zM51.071 40.78h5.502V10.884h-5.502V40.78zM13.733 25.985c0-1.175-.614-1.583-1.446-1.583h-5.22c-1.049 0-1.568.478-1.568 1.543v9.257h6.767c.963 0 1.467-.612 1.467-1.585v-7.631zm5.422-2.6c.042.285.082.61.082.893v10.974c0 1.18-.242 2.113-.723 2.926-1.047 1.87-2.29 2.6-4.298 2.6L.01 40.785 0 10.885h5.5v7.949h8.797c.361 0 .723.04 1.044.122 2.088.447 3.534 2.072 3.815 4.429zm16.148 10.232c0 1.14-.396 1.595-1.468 1.595h-5.224c-.962 0-1.462-.455-1.462-1.596V18.835h-5.503v16.703c0 .325.042.69.082 1.016.441 2.803 2.047 4.226 5.1 4.226h8.799c3.051 0 4.657-1.423 5.1-4.226a8.7 8.7 0 0 0 .08-1.016V18.834h-5.504v14.783zm7.914 7.2h5.501V18.87h-5.501v21.945z" fill="#04003F"/><mask id="a" style="mask-type:alpha" maskUnits="userSpaceOnUse" x="75" y="0" width="60" height="60"><path fill-rule="evenodd" clip-rule="evenodd" d="M75.874.18v10.638h3.694V3.96h50.842v52.124H79.568v-6.96h-3.694v10.74h58.229V.18H75.874z" fill="#fff"/></mask><g mask="url(#a)"><path fill-rule="evenodd" clip-rule="evenodd" d="M75.874.18v10.638h3.694V3.96h50.842v52.124H79.568v-6.96h-3.694v10.74h58.229V.18H75.874z" fill="url(#b)"/></g><defs><linearGradient id="b" x1="75.874" y1="59.864" x2="134.103" y2="59.864" gradientUnits="userSpaceOnUse"><stop stop-color="#4FE2C1"/><stop offset="1" stop-color="#234FDA"/></linearGradient></defs></svg>